<?xml version="1.0" encoding="UTF-8" standalone="no"?><!DOCTYPE svg PUBLIC "-//W3C//DTD SVG 1.1//EN" "http://www.w3.org/Graphics/SVG/1.1/DTD/svg11.dtd"><svg width="100%" height="100%" viewBox="0 0 900 400" version="1.1" xmlns="http://www.w3.org/2000/svg" xmlns:xlink="http://www.w3.org/1999/xlink" xml:space="preserve" xmlns:serif="http://www.serif.com/" style="fill-rule:evenodd;clip-rule:evenodd;stroke-linecap:round;stroke-linejoin:round;stroke-miterlimit:1.5;"><g><rect x="81.863" y="265.5" width="4.85" height="35.825" style="fill-rule:nonzero;"/><path d="M111.663,280.5c-0.133,0.183 -0.266,0.325 -0.4,0.425c-0.133,0.1 -0.316,0.15 -0.55,0.15c-0.25,0 -0.525,-0.104 -0.825,-0.313c-0.3,-0.208 -0.671,-0.437 -1.112,-0.687c-0.442,-0.25 -0.984,-0.479 -1.625,-0.688c-0.642,-0.208 -1.429,-0.312 -2.363,-0.312c-1.25,0 -2.35,0.221 -3.3,0.663c-0.95,0.441 -1.746,1.079 -2.387,1.912c-0.642,0.833 -1.125,1.842 -1.45,3.025c-0.325,1.183 -0.488,2.508 -0.488,3.975c0,1.533 0.175,2.896 0.525,4.088c0.35,1.191 0.846,2.191 1.488,3c0.641,0.808 1.416,1.424 2.325,1.849c0.908,0.425 1.929,0.638 3.062,0.638c1.084,0 1.975,-0.129 2.675,-0.387c0.7,-0.259 1.279,-0.546 1.738,-0.863c0.458,-0.317 0.841,-0.604 1.15,-0.862c0.308,-0.259 0.612,-0.388 0.912,-0.388c0.367,0 0.65,0.142 0.85,0.425l1.25,1.625c-0.55,0.683 -1.175,1.267 -1.875,1.75c-0.7,0.483 -1.454,0.887 -2.262,1.213c-0.809,0.325 -1.654,0.562 -2.538,0.712c-0.883,0.15 -1.783,0.225 -2.7,0.225c-1.583,0 -3.054,-0.292 -4.412,-0.875c-1.359,-0.583 -2.538,-1.429 -3.538,-2.538c-1,-1.108 -1.783,-2.47 -2.35,-4.087c-0.566,-1.617 -0.85,-3.458 -0.85,-5.525c0,-1.883 0.263,-3.625 0.788,-5.225c0.525,-1.6 1.291,-2.979 2.3,-4.138c1.008,-1.158 2.25,-2.062 3.725,-2.712c1.475,-0.65 3.171,-0.975 5.087,-0.975c1.784,0 3.354,0.287 4.713,0.862c1.358,0.575 2.562,1.388 3.612,2.438l-1.175,1.6Z" style="fill-rule:nonzero;"/><path d="M122.388,279.375c1.084,-1.15 2.284,-2.067 3.6,-2.75c1.317,-0.683 2.834,-1.025 4.55,-1.025c1.384,0 2.604,0.229 3.663,0.687c1.058,0.459 1.941,1.109 2.65,1.95c0.708,0.842 1.246,1.855 1.612,3.038c0.367,1.183 0.55,2.492 0.55,3.925l0,16.125l-4.475,0l0,-16.125c0,-1.917 -0.437,-3.404 -1.312,-4.463c-0.875,-1.058 -2.204,-1.587 -3.988,-1.587c-1.316,0 -2.546,0.317 -3.687,0.95c-1.142,0.633 -2.196,1.492 -3.163,2.575l0,18.65l-4.475,0l0,-36.825l4.475,0l0,14.875Z" style="fill-rule:nonzero;"/><path d="M201.163,285.9c0,-1.033 -0.146,-1.979 -0.437,-2.838c-0.292,-0.858 -0.717,-1.6 -1.275,-2.225c-0.559,-0.625 -1.238,-1.108 -2.038,-1.45c-0.8,-0.341 -1.708,-0.512 -2.725,-0.512c-2.133,0 -3.821,0.621 -5.062,1.863c-1.242,1.241 -2.013,2.962 -2.313,5.162l13.85,0Zm3.6,11.875c-0.55,0.667 -1.208,1.246 -1.975,1.738c-0.766,0.491 -1.587,0.895 -2.462,1.212c-0.875,0.317 -1.779,0.554 -2.713,0.713c-0.933,0.158 -1.858,0.237 -2.775,0.237c-1.75,0 -3.362,-0.296 -4.837,-0.888c-1.475,-0.591 -2.75,-1.458 -3.825,-2.6c-1.075,-1.141 -1.913,-2.554 -2.513,-4.237c-0.6,-1.683 -0.9,-3.617 -0.9,-5.8c0,-1.767 0.271,-3.417 0.813,-4.95c0.541,-1.533 1.321,-2.863 2.337,-3.988c1.017,-1.125 2.259,-2.008 3.725,-2.649c1.467,-0.642 3.117,-0.963 4.95,-0.963c1.517,0 2.921,0.254 4.213,0.763c1.291,0.508 2.408,1.241 3.35,2.2c0.941,0.958 1.679,2.141 2.212,3.55c0.534,1.408 0.8,3.012 0.8,4.812c0,0.7 -0.075,1.167 -0.225,1.4c-0.15,0.233 -0.433,0.35 -0.85,0.35l-16.925,0c0.05,1.6 0.271,2.992 0.663,4.175c0.391,1.183 0.937,2.171 1.637,2.963c0.7,0.791 1.534,1.383 2.5,1.774c0.967,0.392 2.05,0.588 3.25,0.588c1.117,0 2.079,-0.129 2.888,-0.388c0.808,-0.258 1.504,-0.537 2.087,-0.837c0.584,-0.3 1.071,-0.579 1.463,-0.838c0.391,-0.258 0.729,-0.387 1.012,-0.387c0.367,0 0.65,0.142 0.85,0.425l1.25,1.625Z" style="fill-rule:nonzero;"/><path d="M225.363,280.175c-0.2,0.367 -0.508,0.55 -0.925,0.55c-0.25,0 -0.533,-0.092 -0.85,-0.275c-0.316,-0.183 -0.704,-0.388 -1.162,-0.613c-0.459,-0.225 -1.004,-0.433 -1.638,-0.625c-0.633,-0.191 -1.383,-0.287 -2.25,-0.287c-0.75,0 -1.425,0.096 -2.025,0.287c-0.6,0.192 -1.112,0.455 -1.537,0.788c-0.425,0.333 -0.75,0.721 -0.975,1.162c-0.225,0.442 -0.338,0.921 -0.338,1.438c0,0.65 0.188,1.192 0.563,1.625c0.375,0.433 0.871,0.808 1.487,1.125c0.617,0.317 1.317,0.596 2.1,0.837c0.784,0.242 1.588,0.5 2.413,0.775c0.825,0.276 1.629,0.58 2.412,0.913c0.784,0.333 1.484,0.75 2.1,1.25c0.617,0.5 1.113,1.113 1.488,1.837c0.375,0.726 0.562,1.596 0.562,2.613c0,1.167 -0.208,2.246 -0.625,3.238c-0.416,0.991 -1.033,1.849 -1.85,2.575c-0.816,0.725 -1.816,1.295 -3,1.712c-1.183,0.417 -2.55,0.625 -4.1,0.625c-1.766,0 -3.366,-0.287 -4.8,-0.862c-1.433,-0.575 -2.65,-1.313 -3.65,-2.213l1.05,-1.7c0.134,-0.217 0.292,-0.383 0.475,-0.5c0.184,-0.117 0.417,-0.175 0.7,-0.175c0.3,0 0.617,0.117 0.95,0.35c0.334,0.233 0.738,0.492 1.213,0.775c0.475,0.283 1.054,0.542 1.737,0.775c0.684,0.233 1.534,0.35 2.55,0.35c0.867,0 1.625,-0.112 2.275,-0.337c0.65,-0.225 1.192,-0.53 1.625,-0.913c0.434,-0.383 0.754,-0.825 0.963,-1.325c0.208,-0.5 0.312,-1.033 0.312,-1.6c0,-0.7 -0.187,-1.279 -0.562,-1.737c-0.375,-0.459 -0.871,-0.85 -1.488,-1.175c-0.616,-0.325 -1.321,-0.609 -2.112,-0.85c-0.792,-0.242 -1.6,-0.496 -2.425,-0.763c-0.825,-0.267 -1.634,-0.571 -2.425,-0.912c-0.792,-0.342 -1.496,-0.771 -2.113,-1.288c-0.616,-0.517 -1.112,-1.154 -1.487,-1.912c-0.375,-0.759 -0.563,-1.68 -0.563,-2.763c0,-0.967 0.2,-1.896 0.6,-2.787c0.4,-0.892 0.984,-1.675 1.75,-2.35c0.767,-0.675 1.709,-1.213 2.825,-1.613c1.117,-0.4 2.392,-0.6 3.825,-0.6c1.667,0 3.163,0.263 4.488,0.788c1.325,0.525 2.471,1.245 3.437,2.162l-1,1.625Z" style="fill-rule:nonzero;"/><path d="M247.013,280.175c-0.2,0.367 -0.508,0.55 -0.925,0.55c-0.25,0 -0.533,-0.092 -0.85,-0.275c-0.316,-0.183 -0.704,-0.388 -1.162,-0.613c-0.459,-0.225 -1.004,-0.433 -1.638,-0.625c-0.633,-0.191 -1.383,-0.287 -2.25,-0.287c-0.75,0 -1.425,0.096 -2.025,0.287c-0.6,0.192 -1.112,0.455 -1.537,0.788c-0.425,0.333 -0.75,0.721 -0.975,1.162c-0.225,0.442 -0.338,0.921 -0.338,1.438c0,0.65 0.188,1.192 0.563,1.625c0.375,0.433 0.871,0.808 1.487,1.125c0.617,0.317 1.317,0.596 2.1,0.837c0.784,0.242 1.588,0.5 2.413,0.775c0.825,0.276 1.629,0.58 2.412,0.913c0.784,0.333 1.484,0.75 2.1,1.25c0.617,0.5 1.113,1.113 1.488,1.837c0.375,0.726 0.562,1.596 0.562,2.613c0,1.167 -0.208,2.246 -0.625,3.238c-0.416,0.991 -1.033,1.849 -1.85,2.575c-0.816,0.725 -1.816,1.295 -3,1.712c-1.183,0.417 -2.55,0.625 -4.1,0.625c-1.766,0 -3.366,-0.287 -4.8,-0.862c-1.433,-0.575 -2.65,-1.313 -3.65,-2.213l1.05,-1.7c0.134,-0.217 0.292,-0.383 0.475,-0.5c0.184,-0.117 0.417,-0.175 0.7,-0.175c0.3,0 0.617,0.117 0.95,0.35c0.334,0.233 0.738,0.492 1.213,0.775c0.475,0.283 1.054,0.542 1.737,0.775c0.684,0.233 1.534,0.35 2.55,0.35c0.867,0 1.625,-0.112 2.275,-0.337c0.65,-0.225 1.192,-0.53 1.625,-0.913c0.434,-0.383 0.754,-0.825 0.963,-1.325c0.208,-0.5 0.312,-1.033 0.312,-1.6c0,-0.7 -0.187,-1.279 -0.562,-1.737c-0.375,-0.459 -0.871,-0.85 -1.488,-1.175c-0.616,-0.325 -1.321,-0.609 -2.112,-0.85c-0.792,-0.242 -1.6,-0.496 -2.425,-0.763c-0.825,-0.267 -1.634,-0.571 -2.425,-0.912c-0.792,-0.342 -1.496,-0.771 -2.113,-1.288c-0.616,-0.517 -1.112,-1.154 -1.487,-1.912c-0.375,-0.759 -0.563,-1.68 -0.563,-2.763c0,-0.967 0.2,-1.896 0.6,-2.787c0.4,-0.892 0.984,-1.675 1.75,-2.35c0.767,-0.675 1.709,-1.213 2.825,-1.613c1.117,-0.4 2.392,-0.6 3.825,-0.6c1.667,0 3.163,0.263 4.488,0.788c1.325,0.525 2.471,1.245 3.437,2.162l-1,1.625Z" style="fill-rule:nonzero;"/><path d="M270.863,285.9c0,-1.033 -0.146,-1.979 -0.437,-2.838c-0.292,-0.858 -0.717,-1.6 -1.275,-2.225c-0.559,-0.625 -1.238,-1.108 -2.038,-1.45c-0.8,-0.341 -1.708,-0.512 -2.725,-0.512c-2.133,0 -3.821,0.621 -5.062,1.863c-1.242,1.241 -2.013,2.962 -2.313,5.162l13.85,0Zm3.6,11.875c-0.55,0.667 -1.208,1.246 -1.975,1.738c-0.766,0.491 -1.587,0.895 -2.462,1.212c-0.875,0.317 -1.779,0.554 -2.713,0.713c-0.933,0.158 -1.858,0.237 -2.775,0.237c-1.75,0 -3.362,-0.296 -4.837,-0.888c-1.475,-0.591 -2.75,-1.458 -3.825,-2.6c-1.075,-1.141 -1.913,-2.554 -2.513,-4.237c-0.6,-1.683 -0.9,-3.617 -0.9,-5.8c0,-1.767 0.271,-3.417 0.813,-4.95c0.541,-1.533 1.321,-2.863 2.337,-3.988c1.017,-1.125 2.259,-2.008 3.725,-2.649c1.467,-0.642 3.117,-0.963 4.95,-0.963c1.517,0 2.921,0.254 4.213,0.763c1.291,0.508 2.408,1.241 3.35,2.2c0.941,0.958 1.679,2.141 2.212,3.55c0.534,1.408 0.8,3.012 0.8,4.812c0,0.7 -0.075,1.167 -0.225,1.4c-0.15,0.233 -0.433,0.35 -0.85,0.35l-16.925,0c0.05,1.6 0.271,2.992 0.663,4.175c0.391,1.183 0.937,2.171 1.637,2.963c0.7,0.791 1.534,1.383 2.5,1.774c0.967,0.392 2.05,0.588 3.25,0.588c1.117,0 2.079,-0.129 2.888,-0.388c0.808,-0.258 1.504,-0.537 2.087,-0.837c0.584,-0.3 1.071,-0.579 1.463,-0.838c0.391,-0.258 0.729,-0.387 1.012,-0.387c0.367,0 0.65,0.142 0.85,0.425l1.25,1.625Z" style="fill-rule:nonzero;"/><path d="M336.188,277.9c0,0.317 -0.054,0.625 -0.162,0.925c-0.109,0.3 -0.254,0.558 -0.438,0.775l-13.725,18.25l13.85,0l0,3.475l-19.075,0l0,-1.85c0,-0.217 0.05,-0.471 0.15,-0.763c0.1,-0.291 0.25,-0.57 0.45,-0.837l13.8,-18.375l-13.625,0l0,-3.5l18.775,0l0,1.9Z" style="fill-rule:nonzero;"/><path d="M340.563,298.575c0,-0.433 0.079,-0.842 0.238,-1.225c0.158,-0.383 0.375,-0.717 0.65,-1c0.275,-0.283 0.604,-0.508 0.987,-0.675c0.384,-0.167 0.792,-0.25 1.225,-0.25c0.434,0 0.842,0.083 1.225,0.25c0.384,0.167 0.717,0.392 1,0.675c0.284,0.283 0.509,0.617 0.675,1c0.167,0.383 0.25,0.792 0.25,1.225c0,0.45 -0.083,0.863 -0.25,1.238c-0.166,0.375 -0.391,0.704 -0.675,0.987c-0.283,0.283 -0.616,0.504 -1,0.662c-0.383,0.159 -0.791,0.238 -1.225,0.238c-0.433,0 -0.841,-0.079 -1.225,-0.238c-0.383,-0.158 -0.712,-0.379 -0.987,-0.662c-0.275,-0.283 -0.492,-0.613 -0.65,-0.988c-0.159,-0.375 -0.238,-0.787 -0.238,-1.237Z" style="fill-rule:nonzero;"/><path d="M366.738,297.475c1.384,0 2.575,-0.158 3.575,-0.475c1,-0.317 1.821,-0.762 2.463,-1.338c0.641,-0.575 1.112,-1.258 1.412,-2.049c0.3,-0.792 0.45,-1.663 0.45,-2.613c0,-1.85 -0.658,-3.313 -1.975,-4.387c-1.316,-1.076 -3.291,-1.613 -5.925,-1.613l-7.75,0l0,12.475l7.75,0Zm-7.75,-28.15l0,12.225l6.4,0c1.367,0 2.554,-0.15 3.563,-0.45c1.008,-0.3 1.841,-0.717 2.5,-1.25c0.658,-0.533 1.146,-1.179 1.462,-1.938c0.317,-0.758 0.475,-1.587 0.475,-2.487c0,-2.117 -0.633,-3.663 -1.9,-4.638c-1.266,-0.975 -3.233,-1.462 -5.9,-1.462l-6.6,0Zm6.6,-3.825c2.2,0 4.096,0.217 5.688,0.65c1.591,0.433 2.9,1.05 3.925,1.85c1.025,0.8 1.779,1.779 2.262,2.937c0.484,1.159 0.725,2.463 0.725,3.913c0,0.883 -0.137,1.729 -0.412,2.537c-0.275,0.809 -0.688,1.563 -1.238,2.263c-0.55,0.7 -1.246,1.329 -2.087,1.887c-0.842,0.559 -1.829,1.013 -2.963,1.363c2.634,0.5 4.613,1.437 5.938,2.812c1.325,1.375 1.987,3.18 1.987,5.413c0,1.517 -0.279,2.9 -0.837,4.15c-0.559,1.25 -1.375,2.325 -2.45,3.225c-1.075,0.9 -2.396,1.596 -3.963,2.087c-1.566,0.492 -3.35,0.738 -5.35,0.738l-12.65,0l0,-35.825l11.425,0Z" style="fill-rule:nonzero;"/><path d="M384.688,298.575c0,-0.433 0.079,-0.842 0.238,-1.225c0.158,-0.383 0.375,-0.717 0.65,-1c0.275,-0.283 0.604,-0.508 0.987,-0.675c0.384,-0.167 0.792,-0.25 1.225,-0.25c0.434,0 0.842,0.083 1.225,0.25c0.384,0.167 0.717,0.392 1,0.675c0.284,0.283 0.509,0.617 0.675,1c0.167,0.383 0.25,0.792 0.25,1.225c0,0.45 -0.083,0.863 -0.25,1.238c-0.166,0.375 -0.391,0.704 -0.675,0.987c-0.283,0.283 -0.616,0.504 -1,0.662c-0.383,0.159 -0.791,0.238 -1.225,0.238c-0.433,0 -0.841,-0.079 -1.225,-0.238c-0.383,-0.158 -0.712,-0.379 -0.987,-0.662c-0.275,-0.283 -0.492,-0.613 -0.65,-0.988c-0.159,-0.375 -0.238,-0.787 -0.238,-1.237Z" style="fill-rule:nonzero;"/><path d="M444.463,288.95c0.9,0 1.692,-0.125 2.375,-0.375c0.684,-0.25 1.259,-0.6 1.725,-1.05c0.467,-0.45 0.817,-0.988 1.05,-1.613c0.234,-0.625 0.35,-1.312 0.35,-2.062c0,-1.55 -0.471,-2.783 -1.412,-3.7c-0.942,-0.917 -2.304,-1.375 -4.088,-1.375c-1.8,0 -3.171,0.458 -4.112,1.375c-0.942,0.917 -1.413,2.15 -1.413,3.7c0,0.75 0.121,1.438 0.363,2.063c0.241,0.625 0.596,1.162 1.062,1.612c0.467,0.45 1.042,0.8 1.725,1.05c0.684,0.25 1.475,0.375 2.375,0.375Zm8.025,13.75c0,-0.617 -0.175,-1.117 -0.525,-1.5c-0.35,-0.383 -0.821,-0.683 -1.412,-0.9c-0.592,-0.217 -1.279,-0.371 -2.063,-0.463c-0.783,-0.091 -1.612,-0.162 -2.487,-0.212c-0.875,-0.05 -1.763,-0.1 -2.663,-0.15c-0.9,-0.05 -1.766,-0.133 -2.6,-0.25c-0.933,0.433 -1.696,0.979 -2.287,1.637c-0.592,0.659 -0.888,1.43 -0.888,2.313c0,0.567 0.146,1.096 0.438,1.587c0.291,0.492 0.737,0.917 1.337,1.275c0.6,0.359 1.354,0.642 2.263,0.851c0.908,0.208 1.979,0.312 3.212,0.312c1.2,0 2.275,-0.108 3.225,-0.325c0.95,-0.217 1.754,-0.525 2.413,-0.925c0.658,-0.4 1.162,-0.875 1.512,-1.425c0.35,-0.55 0.525,-1.158 0.525,-1.825Zm4.525,-25.7l0,1.65c0,0.55 -0.35,0.9 -1.05,1.05l-2.875,0.375c0.567,1.1 0.85,2.317 0.85,3.65c0,1.233 -0.237,2.354 -0.712,3.363c-0.475,1.008 -1.129,1.87 -1.963,2.587c-0.833,0.717 -1.833,1.267 -3,1.65c-1.166,0.383 -2.433,0.575 -3.8,0.575c-1.183,0 -2.3,-0.142 -3.35,-0.425c-0.533,0.333 -0.941,0.688 -1.225,1.063c-0.283,0.375 -0.425,0.754 -0.425,1.137c0,0.6 0.246,1.054 0.738,1.363c0.491,0.308 1.137,0.529 1.937,0.662c0.8,0.133 1.713,0.217 2.738,0.25c1.025,0.033 2.075,0.088 3.15,0.163c1.075,0.075 2.125,0.204 3.15,0.387c1.025,0.183 1.937,0.483 2.737,0.9c0.8,0.417 1.446,0.992 1.938,1.725c0.491,0.733 0.737,1.683 0.737,2.85c0,1.083 -0.271,2.133 -0.812,3.15c-0.542,1.017 -1.321,1.921 -2.338,2.713c-1.016,0.791 -2.262,1.425 -3.737,1.9c-1.475,0.475 -3.138,0.712 -4.988,0.712c-1.85,0 -3.466,-0.183 -4.85,-0.55c-1.383,-0.367 -2.533,-0.858 -3.45,-1.475c-0.916,-0.617 -1.604,-1.329 -2.062,-2.137c-0.459,-0.809 -0.688,-1.655 -0.688,-2.538c0,-1.25 0.392,-2.308 1.175,-3.175c0.784,-0.867 1.859,-1.558 3.225,-2.075c-0.75,-0.333 -1.346,-0.779 -1.787,-1.337c-0.442,-0.559 -0.663,-1.313 -0.663,-2.263c0,-0.367 0.067,-0.746 0.2,-1.137c0.134,-0.392 0.338,-0.784 0.613,-1.175c0.275,-0.392 0.612,-0.763 1.012,-1.113c0.4,-0.35 0.867,-0.658 1.4,-0.925c-1.25,-0.7 -2.225,-1.629 -2.925,-2.787c-0.7,-1.159 -1.05,-2.505 -1.05,-4.038c0,-1.233 0.238,-2.354 0.713,-3.362c0.475,-1.009 1.137,-1.867 1.987,-2.575c0.85,-0.709 1.863,-1.255 3.038,-1.638c1.175,-0.383 2.462,-0.575 3.862,-0.575c1.1,0 2.125,0.121 3.075,0.363c0.95,0.241 1.817,0.595 2.6,1.062l6.875,0Z" style="fill-rule:nonzero;"/><path d="M478.188,285.9c0,-1.033 -0.146,-1.979 -0.437,-2.838c-0.292,-0.858 -0.717,-1.6 -1.275,-2.225c-0.559,-0.625 -1.238,-1.108 -2.038,-1.45c-0.8,-0.341 -1.708,-0.512 -2.725,-0.512c-2.133,0 -3.821,0.621 -5.062,1.863c-1.242,1.241 -2.013,2.962 -2.313,5.162l13.85,0Zm3.6,11.875c-0.55,0.667 -1.208,1.246 -1.975,1.738c-0.766,0.491 -1.587,0.895 -2.462,1.212c-0.875,0.317 -1.779,0.554 -2.713,0.713c-0.933,0.158 -1.858,0.237 -2.775,0.237c-1.75,0 -3.362,-0.296 -4.837,-0.888c-1.475,-0.591 -2.75,-1.458 -3.825,-2.6c-1.075,-1.141 -1.913,-2.554 -2.513,-4.237c-0.6,-1.683 -0.9,-3.617 -0.9,-5.8c0,-1.767 0.271,-3.417 0.813,-4.95c0.541,-1.533 1.321,-2.863 2.337,-3.988c1.017,-1.125 2.259,-2.008 3.725,-2.649c1.467,-0.642 3.117,-0.963 4.95,-0.963c1.517,0 2.921,0.254 4.213,0.763c1.291,0.508 2.408,1.241 3.35,2.2c0.941,0.958 1.679,2.141 2.212,3.55c0.534,1.408 0.8,3.012 0.8,4.812c0,0.7 -0.075,1.167 -0.225,1.4c-0.15,0.233 -0.433,0.35 -0.85,0.35l-16.925,0c0.05,1.6 0.271,2.992 0.663,4.175c0.391,1.183 0.937,2.171 1.637,2.963c0.7,0.791 1.534,1.383 2.5,1.774c0.967,0.392 2.05,0.588 3.25,0.588c1.117,0 2.079,-0.129 2.888,-0.388c0.808,-0.258 1.504,-0.537 2.087,-0.837c0.584,-0.3 1.071,-0.579 1.463,-0.838c0.391,-0.258 0.729,-0.387 1.012,-0.387c0.367,0 0.65,0.142 0.85,0.425l1.25,1.625Z" style="fill-rule:nonzero;"/><path d="M491.863,281.075c0.8,-1.733 1.784,-3.087 2.95,-4.063c1.167,-0.975 2.592,-1.462 4.275,-1.462c0.534,0 1.046,0.058 1.538,0.175c0.491,0.117 0.929,0.3 1.312,0.55l-0.325,3.325c-0.1,0.417 -0.35,0.625 -0.75,0.625c-0.233,0 -0.575,-0.05 -1.025,-0.15c-0.45,-0.1 -0.958,-0.15 -1.525,-0.15c-0.8,0 -1.512,0.117 -2.137,0.35c-0.625,0.233 -1.184,0.579 -1.675,1.037c-0.492,0.459 -0.934,1.025 -1.325,1.7c-0.392,0.675 -0.746,1.446 -1.063,2.313l0,16l-4.475,0l0,-25.325l2.55,0c0.484,0 0.817,0.092 1,0.275c0.184,0.183 0.309,0.5 0.375,0.95l0.3,3.85Z" style="fill-rule:nonzero;"/><path d="M510.038,279.675c0.55,-0.617 1.134,-1.175 1.75,-1.675c0.617,-0.5 1.271,-0.929 1.963,-1.288c0.691,-0.358 1.425,-0.633 2.2,-0.825c0.775,-0.191 1.612,-0.287 2.512,-0.287c1.384,0 2.604,0.229 3.663,0.687c1.058,0.459 1.941,1.109 2.65,1.95c0.708,0.842 1.246,1.855 1.612,3.038c0.367,1.183 0.55,2.492 0.55,3.925l0,16.125l-4.475,0l0,-16.125c0,-1.917 -0.437,-3.404 -1.312,-4.463c-0.875,-1.058 -2.204,-1.587 -3.988,-1.587c-1.316,0 -2.546,0.317 -3.687,0.95c-1.142,0.633 -2.196,1.492 -3.163,2.575l0,18.65l-4.475,0l0,-25.325l2.675,0c0.634,0 1.025,0.308 1.175,0.925l0.35,2.75Z" style="fill-rule:nonzero;"/><path d="M550.688,285.9c0,-1.033 -0.146,-1.979 -0.437,-2.838c-0.292,-0.858 -0.717,-1.6 -1.275,-2.225c-0.559,-0.625 -1.238,-1.108 -2.038,-1.45c-0.8,-0.341 -1.708,-0.512 -2.725,-0.512c-2.133,0 -3.821,0.621 -5.062,1.863c-1.242,1.241 -2.013,2.962 -2.313,5.162l13.85,0Zm3.6,11.875c-0.55,0.667 -1.208,1.246 -1.975,1.738c-0.766,0.491 -1.587,0.895 -2.462,1.212c-0.875,0.317 -1.779,0.554 -2.713,0.713c-0.933,0.158 -1.858,0.237 -2.775,0.237c-1.75,0 -3.362,-0.296 -4.837,-0.888c-1.475,-0.591 -2.75,-1.458 -3.825,-2.6c-1.075,-1.141 -1.913,-2.554 -2.513,-4.237c-0.6,-1.683 -0.9,-3.617 -0.9,-5.8c0,-1.767 0.271,-3.417 0.813,-4.95c0.541,-1.533 1.321,-2.863 2.337,-3.988c1.017,-1.125 2.259,-2.008 3.725,-2.649c1.467,-0.642 3.117,-0.963 4.95,-0.963c1.517,0 2.921,0.254 4.213,0.763c1.291,0.508 2.408,1.241 3.35,2.2c0.941,0.958 1.679,2.141 2.212,3.55c0.534,1.408 0.8,3.012 0.8,4.812c0,0.7 -0.075,1.167 -0.225,1.4c-0.15,0.233 -0.433,0.35 -0.85,0.35l-16.925,0c0.05,1.6 0.271,2.992 0.663,4.175c0.391,1.183 0.937,2.171 1.637,2.963c0.7,0.791 1.534,1.383 2.5,1.774c0.967,0.392 2.05,0.588 3.25,0.588c1.117,0 2.079,-0.129 2.888,-0.388c0.808,-0.258 1.504,-0.537 2.087,-0.837c0.584,-0.3 1.071,-0.579 1.463,-0.838c0.391,-0.258 0.729,-0.387 1.012,-0.387c0.367,0 0.65,0.142 0.85,0.425l1.25,1.625Z" style="fill-rule:nonzero;"/><path d="M612.163,297.475c1.384,0 2.575,-0.158 3.575,-0.475c1,-0.317 1.821,-0.762 2.463,-1.338c0.641,-0.575 1.112,-1.258 1.412,-2.049c0.3,-0.792 0.45,-1.663 0.45,-2.613c0,-1.85 -0.658,-3.313 -1.975,-4.387c-1.316,-1.076 -3.291,-1.613 -5.925,-1.613l-7.75,0l0,12.475l7.75,0Zm-7.75,-28.15l0,12.225l6.4,0c1.367,0 2.554,-0.15 3.563,-0.45c1.008,-0.3 1.841,-0.717 2.5,-1.25c0.658,-0.533 1.146,-1.179 1.462,-1.938c0.317,-0.758 0.475,-1.587 0.475,-2.487c0,-2.117 -0.633,-3.663 -1.9,-4.638c-1.266,-0.975 -3.233,-1.462 -5.9,-1.462l-6.6,0Zm6.6,-3.825c2.2,0 4.096,0.217 5.688,0.65c1.591,0.433 2.9,1.05 3.925,1.85c1.025,0.8 1.779,1.779 2.262,2.937c0.484,1.159 0.725,2.463 0.725,3.913c0,0.883 -0.137,1.729 -0.412,2.537c-0.275,0.809 -0.688,1.563 -1.238,2.263c-0.55,0.7 -1.246,1.329 -2.087,1.887c-0.842,0.559 -1.829,1.013 -2.963,1.363c2.634,0.5 4.613,1.437 5.938,2.812c1.325,1.375 1.987,3.18 1.987,5.413c0,1.517 -0.279,2.9 -0.837,4.15c-0.559,1.25 -1.375,2.325 -2.45,3.225c-1.075,0.9 -2.396,1.596 -3.963,2.087c-1.566,0.492 -3.35,0.738 -5.35,0.738l-12.65,0l0,-35.825l11.425,0Z" style="fill-rule:nonzero;"/><path d="M644.188,289.925c-2.05,0.067 -3.796,0.229 -5.237,0.487c-1.442,0.259 -2.617,0.596 -3.525,1.013c-0.909,0.417 -1.567,0.908 -1.975,1.475c-0.409,0.567 -0.613,1.2 -0.613,1.9c0,0.667 0.109,1.242 0.325,1.725c0.217,0.483 0.513,0.879 0.888,1.187c0.375,0.309 0.816,0.534 1.325,0.675c0.508,0.142 1.054,0.213 1.637,0.213c0.784,0 1.5,-0.079 2.15,-0.238c0.65,-0.158 1.263,-0.387 1.838,-0.687c0.575,-0.3 1.125,-0.658 1.65,-1.075c0.525,-0.417 1.037,-0.892 1.537,-1.425l0,-5.25Zm-14.375,-10.35c1.4,-1.35 2.909,-2.358 4.525,-3.025c1.617,-0.667 3.409,-1 5.375,-1c1.417,0 2.675,0.233 3.775,0.7c1.1,0.467 2.025,1.117 2.775,1.95c0.75,0.833 1.317,1.842 1.7,3.025c0.384,1.183 0.575,2.483 0.575,3.9l0,16.2l-1.975,0c-0.433,0 -0.766,-0.071 -1,-0.212c-0.233,-0.142 -0.416,-0.421 -0.55,-0.838l-0.5,-2.4c-0.666,0.617 -1.316,1.162 -1.95,1.637c-0.633,0.476 -1.3,0.875 -2,1.2c-0.7,0.325 -1.446,0.575 -2.237,0.75c-0.792,0.175 -1.671,0.263 -2.638,0.263c-0.983,0 -1.908,-0.137 -2.775,-0.412c-0.866,-0.276 -1.621,-0.688 -2.262,-1.238c-0.642,-0.55 -1.15,-1.246 -1.525,-2.087c-0.375,-0.842 -0.563,-1.838 -0.563,-2.988c0,-1 0.275,-1.963 0.825,-2.887c0.55,-0.925 1.442,-1.746 2.675,-2.463c1.234,-0.717 2.842,-1.304 4.825,-1.762c1.984,-0.459 4.417,-0.721 7.3,-0.788l0,-1.975c0,-1.967 -0.425,-3.454 -1.275,-4.462c-0.85,-1.009 -2.091,-1.513 -3.725,-1.513c-1.1,0 -2.021,0.137 -2.762,0.413c-0.742,0.274 -1.384,0.583 -1.925,0.925c-0.542,0.341 -1.009,0.649 -1.4,0.924c-0.392,0.276 -0.779,0.413 -1.163,0.413c-0.3,0 -0.558,-0.079 -0.775,-0.238c-0.216,-0.158 -0.4,-0.354 -0.55,-0.587l-0.8,-1.425Z" style="fill-rule:nonzero;"/><path d="M659.513,279.675c0.55,-0.617 1.134,-1.175 1.75,-1.675c0.617,-0.5 1.271,-0.929 1.963,-1.288c0.691,-0.358 1.425,-0.633 2.2,-0.825c0.775,-0.191 1.612,-0.287 2.512,-0.287c1.384,0 2.604,0.229 3.663,0.687c1.058,0.459 1.941,1.109 2.65,1.95c0.708,0.842 1.246,1.855 1.612,3.038c0.367,1.183 0.55,2.492 0.55,3.925l0,16.125l-4.475,0l0,-16.125c0,-1.917 -0.437,-3.404 -1.312,-4.463c-0.875,-1.058 -2.204,-1.587 -3.988,-1.587c-1.316,0 -2.546,0.317 -3.687,0.95c-1.142,0.633 -2.196,1.492 -3.163,2.575l0,18.65l-4.475,0l0,-25.325l2.675,0c0.634,0 1.025,0.308 1.175,0.925l0.35,2.75Z" style="fill-rule:nonzero;"/><path d="M696.938,289.925c-2.05,0.067 -3.796,0.229 -5.237,0.487c-1.442,0.259 -2.617,0.596 -3.525,1.013c-0.909,0.417 -1.567,0.908 -1.975,1.475c-0.409,0.567 -0.613,1.2 -0.613,1.9c0,0.667 0.109,1.242 0.325,1.725c0.217,0.483 0.513,0.879 0.888,1.187c0.375,0.309 0.816,0.534 1.325,0.675c0.508,0.142 1.054,0.213 1.637,0.213c0.784,0 1.5,-0.079 2.15,-0.238c0.65,-0.158 1.263,-0.387 1.838,-0.687c0.575,-0.3 1.125,-0.658 1.65,-1.075c0.525,-0.417 1.037,-0.892 1.537,-1.425l0,-5.25Zm-14.375,-10.35c1.4,-1.35 2.909,-2.358 4.525,-3.025c1.617,-0.667 3.409,-1 5.375,-1c1.417,0 2.675,0.233 3.775,0.7c1.1,0.467 2.025,1.117 2.775,1.95c0.75,0.833 1.317,1.842 1.7,3.025c0.384,1.183 0.575,2.483 0.575,3.9l0,16.2l-1.975,0c-0.433,0 -0.766,-0.071 -1,-0.212c-0.233,-0.142 -0.416,-0.421 -0.55,-0.838l-0.5,-2.4c-0.666,0.617 -1.316,1.162 -1.95,1.637c-0.633,0.476 -1.3,0.875 -2,1.2c-0.7,0.325 -1.446,0.575 -2.237,0.75c-0.792,0.175 -1.671,0.263 -2.638,0.263c-0.983,0 -1.908,-0.137 -2.775,-0.412c-0.866,-0.276 -1.621,-0.688 -2.262,-1.238c-0.642,-0.55 -1.15,-1.246 -1.525,-2.087c-0.375,-0.842 -0.563,-1.838 -0.563,-2.988c0,-1 0.275,-1.963 0.825,-2.887c0.55,-0.925 1.442,-1.746 2.675,-2.463c1.234,-0.717 2.842,-1.304 4.825,-1.762c1.984,-0.459 4.417,-0.721 7.3,-0.788l0,-1.975c0,-1.967 -0.425,-3.454 -1.275,-4.462c-0.85,-1.009 -2.091,-1.513 -3.725,-1.513c-1.1,0 -2.021,0.137 -2.762,0.413c-0.742,0.274 -1.384,0.583 -1.925,0.925c-0.542,0.341 -1.009,0.649 -1.4,0.924c-0.392,0.276 -0.779,0.413 -1.163,0.413c-0.3,0 -0.558,-0.079 -0.775,-0.238c-0.216,-0.158 -0.4,-0.354 -0.55,-0.587l-0.8,-1.425Z" style="fill-rule:nonzero;"/><path d="M712.263,279.675c0.55,-0.617 1.134,-1.175 1.75,-1.675c0.617,-0.5 1.271,-0.929 1.963,-1.288c0.691,-0.358 1.425,-0.633 2.2,-0.825c0.775,-0.191 1.612,-0.287 2.512,-0.287c1.384,0 2.604,0.229 3.663,0.687c1.058,0.459 1.941,1.109 2.65,1.95c0.708,0.842 1.246,1.855 1.612,3.038c0.367,1.183 0.55,2.492 0.55,3.925l0,16.125l-4.475,0l0,-16.125c0,-1.917 -0.437,-3.404 -1.312,-4.463c-0.875,-1.058 -2.204,-1.587 -3.988,-1.587c-1.316,0 -2.546,0.317 -3.687,0.95c-1.142,0.633 -2.196,1.492 -3.163,2.575l0,18.65l-4.475,0l0,-25.325l2.675,0c0.634,0 1.025,0.308 1.175,0.925l0.35,2.75Z" style="fill-rule:nonzero;"/><path d="M752.913,285.9c0,-1.033 -0.146,-1.979 -0.437,-2.838c-0.292,-0.858 -0.717,-1.6 -1.275,-2.225c-0.559,-0.625 -1.238,-1.108 -2.038,-1.45c-0.8,-0.341 -1.708,-0.512 -2.725,-0.512c-2.133,0 -3.821,0.621 -5.062,1.863c-1.242,1.241 -2.013,2.962 -2.313,5.162l13.85,0Zm3.6,11.875c-0.55,0.667 -1.208,1.246 -1.975,1.738c-0.766,0.491 -1.587,0.895 -2.462,1.212c-0.875,0.317 -1.779,0.554 -2.713,0.713c-0.933,0.158 -1.858,0.237 -2.775,0.237c-1.75,0 -3.362,-0.296 -4.837,-0.888c-1.475,-0.591 -2.75,-1.458 -3.825,-2.6c-1.075,-1.141 -1.913,-2.554 -2.513,-4.237c-0.6,-1.683 -0.9,-3.617 -0.9,-5.8c0,-1.767 0.271,-3.417 0.813,-4.95c0.541,-1.533 1.321,-2.863 2.337,-3.988c1.017,-1.125 2.259,-2.008 3.725,-2.649c1.467,-0.642 3.117,-0.963 4.95,-0.963c1.517,0 2.921,0.254 4.213,0.763c1.291,0.508 2.408,1.241 3.35,2.2c0.941,0.958 1.679,2.141 2.212,3.55c0.534,1.408 0.8,3.012 0.8,4.812c0,0.7 -0.075,1.167 -0.225,1.4c-0.15,0.233 -0.433,0.35 -0.85,0.35l-16.925,0c0.05,1.6 0.271,2.992 0.663,4.175c0.391,1.183 0.937,2.171 1.637,2.963c0.7,0.791 1.534,1.383 2.5,1.774c0.967,0.392 2.05,0.588 3.25,0.588c1.117,0 2.079,-0.129 2.888,-0.388c0.808,-0.258 1.504,-0.537 2.087,-0.837c0.584,-0.3 1.071,-0.579 1.463,-0.838c0.391,-0.258 0.729,-0.387 1.012,-0.387c0.367,0 0.65,0.142 0.85,0.425l1.25,1.625Z" style="fill-rule:nonzero;"/><path d="M766.563,279.675c0.55,-0.617 1.134,-1.175 1.75,-1.675c0.617,-0.5 1.271,-0.929 1.963,-1.288c0.691,-0.358 1.425,-0.633 2.2,-0.825c0.775,-0.191 1.612,-0.287 2.512,-0.287c1.384,0 2.604,0.229 3.663,0.687c1.058,0.459 1.941,1.109 2.65,1.95c0.708,0.842 1.246,1.855 1.612,3.038c0.367,1.183 0.55,2.492 0.55,3.925l0,16.125l-4.475,0l0,-16.125c0,-1.917 -0.437,-3.404 -1.312,-4.463c-0.875,-1.058 -2.204,-1.587 -3.988,-1.587c-1.316,0 -2.546,0.317 -3.687,0.95c-1.142,0.633 -2.196,1.492 -3.163,2.575l0,18.65l-4.475,0l0,-25.325l2.675,0c0.634,0 1.025,0.308 1.175,0.925l0.35,2.75Z" style="fill-rule:nonzero;"/><path d="M815.113,298.575c0,-0.433 0.079,-0.842 0.238,-1.225c0.158,-0.383 0.375,-0.717 0.65,-1c0.275,-0.283 0.604,-0.508 0.987,-0.675c0.384,-0.167 0.792,-0.25 1.225,-0.25c0.434,0 0.842,0.083 1.225,0.25c0.384,0.167 0.717,0.392 1,0.675c0.284,0.283 0.509,0.617 0.675,1c0.167,0.383 0.25,0.792 0.25,1.225c0,0.45 -0.083,0.863 -0.25,1.238c-0.166,0.375 -0.391,0.704 -0.675,0.987c-0.283,0.283 -0.616,0.504 -1,0.662c-0.383,0.159 -0.791,0.238 -1.225,0.238c-0.433,0 -0.841,-0.079 -1.225,-0.238c-0.383,-0.158 -0.712,-0.379 -0.987,-0.662c-0.275,-0.283 -0.492,-0.613 -0.65,-0.988c-0.159,-0.375 -0.238,-0.787 -0.238,-1.237Z" style="fill-rule:nonzero;"/><g><rect x="69.712" y="241.5" width="82.153" height="80.25" style="fill:none;stroke:#16167b;stroke-width:5px;"/><rect x="804.712" y="241.5" width="29.153" height="80.25" style="fill:none;stroke:#2a2a7b;stroke-width:5px;"/><rect x="165.288" y="241.5" width="121.5" height="80.25" style="fill:none;stroke:#2a2a7b;stroke-width:5px;"/><rect x="305.788" y="241.5" width="95.5" height="80.25" style="fill:none;stroke:#2a2a7b;stroke-width:5px;"/><rect x="416.788" y="241.5" width="149.5" height="80.25" style="fill:none;stroke:#2a2a7b;stroke-width:5px;"/><rect x="583.788" y="241.5" width="210.5" height="80.25" style="fill:none;stroke:#2a2a7b;stroke-width:5px;"/></g></g><g transform="matrix(1,0,0,1,-0.5,-141.815)"><g transform="matrix(50,0,0,50,144,246.825)"><rect x="0.092" y="-0.717" width="0.097" height="0.717" style="fill-rule:nonzero;"/></g><g transform="matrix(50,0,0,50,157.225,246.825)"><path d="M0.423,-0.417c-0.003,0.004 -0.005,0.007 -0.008,0.009c-0.003,0.002 -0.006,0.003 -0.011,0.003c-0.005,0 -0.01,-0.002 -0.016,-0.006c-0.006,-0.004 -0.014,-0.009 -0.023,-0.014c-0.009,-0.005 -0.019,-0.01 -0.032,-0.014c-0.013,-0.004 -0.029,-0.006 -0.047,-0.006c-0.025,0 -0.047,0.004 -0.066,0.013c-0.019,0.009 -0.035,0.022 -0.048,0.038c-0.013,0.017 -0.023,0.037 -0.029,0.061c-0.007,0.024 -0.01,0.05 -0.01,0.08c0,0.03 0.004,0.057 0.011,0.081c0.007,0.024 0.016,0.044 0.029,0.06c0.013,0.016 0.029,0.029 0.047,0.037c0.018,0.009 0.038,0.013 0.061,0.013c0.022,0 0.04,-0.003 0.054,-0.008c0.014,-0.005 0.025,-0.011 0.034,-0.017c0.009,-0.006 0.017,-0.012 0.023,-0.017c0.006,-0.005 0.013,-0.008 0.019,-0.008c0.007,0 0.012,0.003 0.016,0.008l0.025,0.033c-0.011,0.014 -0.023,0.025 -0.037,0.035c-0.014,0.01 -0.029,0.018 -0.045,0.024c-0.016,0.007 -0.033,0.011 -0.051,0.014c-0.018,0.003 -0.036,0.005 -0.054,0.005c-0.032,0 -0.061,-0.006 -0.088,-0.018c-0.027,-0.011 -0.051,-0.028 -0.071,-0.05c-0.02,-0.022 -0.036,-0.05 -0.047,-0.082c-0.011,-0.032 -0.017,-0.069 -0.017,-0.111c0,-0.037 0.005,-0.072 0.016,-0.104c0.01,-0.032 0.026,-0.06 0.046,-0.083c0.02,-0.023 0.045,-0.041 0.074,-0.054c0.03,-0.013 0.064,-0.019 0.102,-0.019c0.036,0 0.067,0.005 0.094,0.017c0.027,0.011 0.051,0.027 0.072,0.048l-0.023,0.033Z" style="fill-rule:nonzero;"/></g><g transform="matrix(50,0,0,50,181.1,246.825)"><path d="M0.16,-0.439c0.022,-0.023 0.046,-0.041 0.072,-0.055c0.026,-0.014 0.057,-0.02 0.091,-0.02c0.028,0 0.052,0.004 0.073,0.013c0.021,0.009 0.039,0.022 0.053,0.039c0.014,0.017 0.025,0.037 0.032,0.061c0.008,0.024 0.012,0.05 0.012,0.079l-0.001,0.322l-0.089,0l0,-0.323c0,-0.038 -0.009,-0.068 -0.026,-0.089c-0.018,-0.021 -0.044,-0.031 -0.08,-0.031c-0.026,0 -0.051,0.006 -0.074,0.019c-0.023,0.012 -0.044,0.029 -0.063,0.051l0,0.373l-0.089,0l0,-0.736l0.089,-0.001l0,0.298Z" style="fill-rule:nonzero;"/></g><g transform="matrix(50,0,0,50,221.8,246.825)"><path d="M0.41,-0.309c-0.001,-0.02 -0.003,-0.039 -0.009,-0.056c-0.006,-0.017 -0.015,-0.032 -0.026,-0.045c-0.011,-0.012 -0.025,-0.022 -0.04,-0.029c-0.017,-0.007 -0.035,-0.01 -0.055,-0.01c-0.043,0 -0.076,0.012 -0.101,0.037c-0.025,0.025 -0.041,0.059 -0.047,0.104l0.278,0Zm0.071,0.237c-0.011,0.013 -0.024,0.025 -0.039,0.035c-0.015,0.01 -0.032,0.018 -0.049,0.024c-0.018,0.006 -0.036,0.011 -0.055,0.014c-0.018,0.003 -0.037,0.005 -0.055,0.005c-0.035,0 -0.067,-0.006 -0.097,-0.018c-0.029,-0.012 -0.055,-0.029 -0.076,-0.052c-0.022,-0.023 -0.039,-0.051 -0.051,-0.084c-0.012,-0.034 -0.018,-0.073 -0.018,-0.116c0,-0.036 0.006,-0.069 0.017,-0.099c0.011,-0.031 0.026,-0.058 0.046,-0.08c0.021,-0.023 0.046,-0.04 0.075,-0.053c0.029,-0.013 0.062,-0.019 0.099,-0.019c0.03,0 0.058,0.005 0.084,0.015c0.026,0.01 0.048,0.025 0.067,0.044c0.019,0.019 0.034,0.043 0.044,0.071c0.011,0.028 0.016,0.06 0.016,0.096c0,0.014 -0.001,0.023 -0.004,0.028c-0.003,0.005 -0.009,0.007 -0.017,0.007l-0.339,0c0.001,0.032 0.006,0.06 0.014,0.084c0.008,0.023 0.018,0.043 0.032,0.059c0.014,0.016 0.031,0.027 0.05,0.035c0.02,0.008 0.041,0.012 0.065,0.012c0.023,0 0.042,-0.003 0.058,-0.008c0.016,-0.005 0.03,-0.01 0.042,-0.016c0.012,-0.006 0.021,-0.012 0.029,-0.017c0.008,-0.005 0.015,-0.008 0.02,-0.008c0.008,0 0.013,0.003 0.017,0.009l0.025,0.032Z" style="fill-rule:nonzero;"/></g><g transform="matrix(50,0,0,50,248.2,246.825)"><path d="M0.366,-0.423c-0.005,0.007 -0.011,0.011 -0.019,0.011c-0.005,0 -0.011,-0.002 -0.017,-0.006c-0.006,-0.003 -0.014,-0.007 -0.023,-0.012c-0.009,-0.004 -0.02,-0.008 -0.033,-0.012c-0.013,-0.004 -0.028,-0.006 -0.045,-0.006c-0.015,0 -0.028,0.002 -0.04,0.006c-0.012,0.004 -0.023,0.009 -0.031,0.016c-0.009,0.006 -0.015,0.014 -0.02,0.023c-0.004,0.009 -0.006,0.018 -0.006,0.028c0,0.013 0.003,0.024 0.011,0.033c0.007,0.009 0.017,0.016 0.03,0.022c0.012,0.007 0.026,0.012 0.042,0.017c0.015,0.005 0.031,0.01 0.048,0.016c0.016,0.005 0.032,0.011 0.048,0.018c0.016,0.007 0.03,0.015 0.042,0.025c0.012,0.01 0.022,0.022 0.03,0.037c0.007,0.014 0.011,0.032 0.011,0.052c0,0.023 -0.004,0.045 -0.012,0.065c-0.009,0.02 -0.021,0.037 -0.037,0.051c-0.017,0.015 -0.037,0.026 -0.06,0.034c-0.024,0.009 -0.051,0.013 -0.082,0.013c-0.036,0 -0.068,-0.006 -0.096,-0.017c-0.029,-0.012 -0.053,-0.027 -0.073,-0.045l0.021,-0.034c0.002,-0.004 0.005,-0.007 0.009,-0.01c0.004,-0.002 0.008,-0.003 0.014,-0.003c0.006,0 0.012,0.002 0.019,0.007c0.007,0.005 0.015,0.01 0.024,0.015c0.01,0.006 0.021,0.011 0.035,0.016c0.014,0.005 0.031,0.007 0.051,0.007c0.017,0 0.033,-0.002 0.046,-0.007c0.013,-0.004 0.023,-0.01 0.032,-0.018c0.009,-0.008 0.015,-0.017 0.019,-0.027c0.004,-0.01 0.007,-0.02 0.007,-0.032c0,-0.014 -0.004,-0.025 -0.012,-0.034c-0.007,-0.009 -0.017,-0.017 -0.029,-0.024c-0.013,-0.006 -0.027,-0.012 -0.043,-0.017c-0.016,-0.005 -0.032,-0.01 -0.048,-0.015c-0.017,-0.005 -0.033,-0.011 -0.049,-0.018c-0.016,-0.007 -0.03,-0.016 -0.042,-0.026c-0.012,-0.01 -0.022,-0.023 -0.03,-0.038c-0.007,-0.015 -0.011,-0.034 -0.011,-0.056c0,-0.019 0.004,-0.037 0.012,-0.055c0.008,-0.018 0.02,-0.034 0.035,-0.047c0.015,-0.014 0.034,-0.025 0.057,-0.033c0.022,-0.008 0.047,-0.012 0.076,-0.012c0.033,0 0.063,0.006 0.09,0.016c0.026,0.011 0.049,0.025 0.069,0.043l-0.02,0.033Z" style="fill-rule:nonzero;"/></g><g transform="matrix(50,0,0,50,269.85,246.825)"><path d="M0.366,-0.423c-0.005,0.007 -0.011,0.011 -0.019,0.011c-0.005,0 -0.011,-0.002 -0.017,-0.006c-0.006,-0.003 -0.014,-0.007 -0.023,-0.012c-0.009,-0.004 -0.02,-0.008 -0.033,-0.012c-0.013,-0.004 -0.028,-0.006 -0.045,-0.006c-0.015,0 -0.028,0.002 -0.04,0.006c-0.012,0.004 -0.023,0.009 -0.031,0.016c-0.009,0.006 -0.015,0.014 -0.02,0.023c-0.004,0.009 -0.006,0.018 -0.006,0.028c0,0.013 0.003,0.024 0.011,0.033c0.007,0.009 0.017,0.016 0.03,0.022c0.012,0.007 0.026,0.012 0.042,0.017c0.015,0.005 0.031,0.01 0.048,0.016c0.016,0.005 0.032,0.011 0.048,0.018c0.016,0.007 0.03,0.015 0.042,0.025c0.012,0.01 0.022,0.022 0.03,0.037c0.007,0.014 0.011,0.032 0.011,0.052c0,0.023 -0.004,0.045 -0.012,0.065c-0.009,0.02 -0.021,0.037 -0.037,0.051c-0.017,0.015 -0.037,0.026 -0.06,0.034c-0.024,0.009 -0.051,0.013 -0.082,0.013c-0.036,0 -0.068,-0.006 -0.096,-0.017c-0.029,-0.012 -0.053,-0.027 -0.073,-0.045l0.021,-0.034c0.002,-0.004 0.005,-0.007 0.009,-0.01c0.004,-0.002 0.008,-0.003 0.014,-0.003c0.006,0 0.012,0.002 0.019,0.007c0.007,0.005 0.015,0.01 0.024,0.015c0.01,0.006 0.021,0.011 0.035,0.016c0.014,0.005 0.031,0.007 0.051,0.007c0.017,0 0.033,-0.002 0.046,-0.007c0.013,-0.004 0.023,-0.01 0.032,-0.018c0.009,-0.008 0.015,-0.017 0.019,-0.027c0.004,-0.01 0.007,-0.02 0.007,-0.032c0,-0.014 -0.004,-0.025 -0.012,-0.034c-0.007,-0.009 -0.017,-0.017 -0.029,-0.024c-0.013,-0.006 -0.027,-0.012 -0.043,-0.017c-0.016,-0.005 -0.032,-0.01 -0.048,-0.015c-0.017,-0.005 -0.033,-0.011 -0.049,-0.018c-0.016,-0.007 -0.03,-0.016 -0.042,-0.026c-0.012,-0.01 -0.022,-0.023 -0.03,-0.038c-0.007,-0.015 -0.011,-0.034 -0.011,-0.056c0,-0.019 0.004,-0.037 0.012,-0.055c0.008,-0.018 0.02,-0.034 0.035,-0.047c0.015,-0.014 0.034,-0.025 0.057,-0.033c0.022,-0.008 0.047,-0.012 0.076,-0.012c0.033,0 0.063,0.006 0.09,0.016c0.026,0.011 0.049,0.025 0.069,0.043l-0.02,0.033Z" style="fill-rule:nonzero;"/></g><g transform="matrix(50,0,0,50,291.5,246.825)"><path d="M0.41,-0.309c-0.001,-0.02 -0.003,-0.039 -0.009,-0.056c-0.006,-0.017 -0.015,-0.032 -0.026,-0.045c-0.011,-0.012 -0.025,-0.022 -0.04,-0.029c-0.017,-0.007 -0.035,-0.01 -0.055,-0.01c-0.043,0 -0.076,0.012 -0.101,0.037c-0.025,0.025 -0.041,0.059 -0.047,0.104l0.278,0Zm0.071,0.237c-0.011,0.013 -0.024,0.025 -0.039,0.035c-0.015,0.01 -0.032,0.018 -0.049,0.024c-0.018,0.006 -0.036,0.011 -0.055,0.014c-0.018,0.003 -0.037,0.005 -0.055,0.005c-0.035,0 -0.067,-0.006 -0.097,-0.018c-0.029,-0.012 -0.055,-0.029 -0.076,-0.052c-0.022,-0.023 -0.039,-0.051 -0.051,-0.084c-0.012,-0.034 -0.018,-0.073 -0.018,-0.116c0,-0.036 0.006,-0.069 0.017,-0.099c0.011,-0.031 0.026,-0.058 0.046,-0.08c0.021,-0.023 0.046,-0.04 0.075,-0.053c0.029,-0.013 0.062,-0.019 0.099,-0.019c0.03,0 0.058,0.005 0.084,0.015c0.026,0.01 0.048,0.025 0.067,0.044c0.019,0.019 0.034,0.043 0.044,0.071c0.011,0.028 0.016,0.06 0.016,0.096c0,0.014 -0.001,0.023 -0.004,0.028c-0.003,0.005 -0.009,0.007 -0.017,0.007l-0.339,0c0.001,0.032 0.006,0.06 0.014,0.084c0.008,0.023 0.018,0.043 0.032,0.059c0.014,0.016 0.031,0.027 0.05,0.035c0.02,0.008 0.041,0.012 0.065,0.012c0.023,0 0.042,-0.003 0.058,-0.008c0.016,-0.005 0.03,-0.01 0.042,-0.016c0.012,-0.006 0.021,-0.012 0.029,-0.017c0.008,-0.005 0.015,-0.008 0.02,-0.008c0.008,0 0.013,0.003 0.017,0.009l0.025,0.032Z" style="fill-rule:nonzero;"/></g><g transform="matrix(50,0,0,50,331.7,246.825)"><path d="M0.42,-0.469c0,0.007 -0.001,0.013 -0.003,0.019c-0.002,0.006 -0.005,0.011 -0.009,0.016l-0.274,0.365l0.277,-0.001l0,0.07l-0.382,0l0,-0.037c0,-0.004 0.001,-0.009 0.003,-0.015c0.002,-0.006 0.005,-0.012 0.009,-0.017l0.276,-0.368l-0.273,0.001l0.001,-0.071l0.375,0l0,0.038Z" style="fill-rule:nonzero;"/></g><g transform="matrix(50,0,0,50,354.3,246.825)"><path d="M0.056,-0.055c-0.001,-0.009 0.001,-0.017 0.004,-0.025c0.003,-0.007 0.008,-0.014 0.013,-0.02c0.006,-0.005 0.012,-0.01 0.02,-0.013c0.008,-0.003 0.016,-0.005 0.025,-0.005c0.008,0 0.016,0.002 0.024,0.005c0.008,0.003 0.014,0.008 0.02,0.013c0.006,0.006 0.01,0.013 0.014,0.021c0.003,0.007 0.005,0.015 0.005,0.024c-0.001,0.009 -0.002,0.017 -0.005,0.025c-0.004,0.007 -0.008,0.014 -0.014,0.019c-0.006,0.006 -0.012,0.011 -0.02,0.014c-0.008,0.003 -0.016,0.004 -0.024,0.004c-0.009,0 -0.017,-0.001 -0.025,-0.004c-0.008,-0.003 -0.014,-0.008 -0.02,-0.014c-0.005,-0.005 -0.01,-0.012 -0.013,-0.019c-0.003,-0.008 -0.004,-0.016 -0.004,-0.025Z" style="fill-rule:nonzero;"/></g><g transform="matrix(50,0,0,50,366.1,246.825)"><path d="M0.343,-0.077c0.028,0 0.051,-0.003 0.072,-0.01c0.02,-0.006 0.036,-0.015 0.049,-0.026c0.013,-0.012 0.022,-0.025 0.028,-0.041c0.006,-0.016 0.009,-0.034 0.009,-0.053c0,-0.037 -0.013,-0.066 -0.039,-0.087c-0.027,-0.022 -0.066,-0.033 -0.119,-0.033l-0.155,0l0,0.25l0.155,0Zm-0.155,-0.563l0,0.245l0.128,-0.001c0.027,0.001 0.051,-0.003 0.071,-0.009c0.02,-0.006 0.037,-0.014 0.05,-0.024c0.013,-0.011 0.023,-0.024 0.029,-0.039c0.007,-0.015 0.01,-0.032 0.01,-0.05c0,-0.042 -0.013,-0.073 -0.038,-0.093c-0.025,-0.019 -0.065,-0.029 -0.118,-0.029l-0.132,0Zm0.132,-0.077c0.044,0 0.082,0.005 0.114,0.013c0.032,0.009 0.058,0.021 0.078,0.037c0.021,0.016 0.036,0.036 0.045,0.059c0.01,0.023 0.015,0.049 0.015,0.078c0,0.018 -0.003,0.035 -0.008,0.051c-0.006,0.016 -0.014,0.031 -0.025,0.045c-0.011,0.014 -0.025,0.027 -0.042,0.038c-0.017,0.011 -0.036,0.02 -0.059,0.027c0.053,0.01 0.092,0.029 0.119,0.057c0.026,0.027 0.039,0.063 0.039,0.108c0,0.03 -0.005,0.058 -0.016,0.083c-0.011,0.025 -0.028,0.046 -0.049,0.064c-0.022,0.018 -0.048,0.032 -0.08,0.042c-0.031,0.01 -0.067,0.015 -0.107,0.015l-0.253,0l0,-0.717l0.229,0Z" style="fill-rule:nonzero;"/></g><g transform="matrix(50,0,0,50,398.425,246.825)"><path d="M0.056,-0.055c-0.001,-0.009 0.001,-0.017 0.004,-0.025c0.003,-0.007 0.008,-0.014 0.013,-0.02c0.006,-0.005 0.012,-0.01 0.02,-0.013c0.008,-0.003 0.016,-0.005 0.025,-0.005c0.008,0 0.016,0.002 0.024,0.005c0.008,0.003 0.014,0.008 0.02,0.013c0.006,0.006 0.01,0.013 0.014,0.021c0.003,0.007 0.005,0.015 0.005,0.024c-0.001,0.009 -0.002,0.017 -0.005,0.025c-0.004,0.007 -0.008,0.014 -0.014,0.019c-0.006,0.006 -0.012,0.011 -0.02,0.014c-0.008,0.003 -0.016,0.004 -0.024,0.004c-0.009,0 -0.017,-0.001 -0.025,-0.004c-0.008,-0.003 -0.014,-0.008 -0.02,-0.014c-0.005,-0.005 -0.01,-0.012 -0.013,-0.019c-0.003,-0.008 -0.004,-0.016 -0.004,-0.025Z" style="fill-rule:nonzero;"/></g><g transform="matrix(50,0,0,50,423.025,246.825)"><path d="M0.247,-0.248c0.018,0.001 0.034,-0.002 0.047,-0.007c0.014,-0.005 0.026,-0.012 0.035,-0.021c0.009,-0.009 0.016,-0.02 0.021,-0.032c0.005,-0.013 0.007,-0.026 0.007,-0.041c0,-0.032 -0.009,-0.056 -0.028,-0.074c-0.019,-0.019 -0.046,-0.028 -0.082,-0.028c-0.036,0 -0.063,0.009 -0.082,0.028c-0.019,0.018 -0.028,0.042 -0.028,0.074c0,0.015 0.002,0.028 0.007,0.041c0.005,0.012 0.012,0.023 0.021,0.032c0.009,0.009 0.021,0.016 0.035,0.021c0.013,0.005 0.029,0.008 0.047,0.008Zm0.161,0.275c0,-0.013 -0.004,-0.023 -0.011,-0.031c-0.007,-0.007 -0.016,-0.013 -0.028,-0.018c-0.012,-0.004 -0.026,-0.007 -0.041,-0.009c-0.016,-0.002 -0.033,-0.003 -0.05,-0.004c-0.018,-0.001 -0.035,-0.002 -0.053,-0.003c-0.018,-0.001 -0.036,-0.003 -0.052,-0.005c-0.019,0.009 -0.034,0.02 -0.046,0.033c-0.012,0.013 -0.018,0.028 -0.018,0.046c0,0.011 0.003,0.022 0.009,0.032c0.006,0.01 0.015,0.018 0.027,0.025c0.012,0.007 0.027,0.013 0.045,0.017c0.018,0.004 0.039,0.006 0.064,0.006c0.024,0 0.046,-0.002 0.065,-0.006c0.019,-0.004 0.035,-0.011 0.048,-0.019c0.013,-0.008 0.023,-0.017 0.03,-0.028c0.007,-0.011 0.011,-0.023 0.011,-0.037Zm0.09,-0.514l0,0.033c0,0.011 -0.007,0.018 -0.021,0.021l-0.057,0.008c0.011,0.022 0.017,0.046 0.017,0.073c0,0.025 -0.005,0.047 -0.015,0.067c-0.009,0.02 -0.022,0.038 -0.039,0.052c-0.017,0.014 -0.037,0.025 -0.06,0.033c-0.023,0.008 -0.049,0.011 -0.076,0.011c-0.024,0 -0.046,-0.002 -0.067,-0.008c-0.011,0.007 -0.019,0.014 -0.024,0.021c-0.006,0.008 -0.009,0.015 -0.009,0.023c0,0.012 0.005,0.021 0.015,0.027c0.01,0.006 0.023,0.011 0.039,0.013c0.016,0.003 0.034,0.005 0.054,0.005c0.021,0.001 0.042,0.002 0.063,0.004c0.022,0.001 0.043,0.004 0.063,0.007c0.021,0.004 0.039,0.01 0.055,0.018c0.016,0.009 0.029,0.02 0.039,0.035c0.01,0.015 0.015,0.034 0.015,0.057c0,0.022 -0.006,0.043 -0.017,0.063c-0.011,0.02 -0.026,0.038 -0.046,0.054c-0.021,0.016 -0.046,0.029 -0.075,0.038c-0.03,0.01 -0.063,0.014 -0.1,0.014c-0.037,0 -0.069,-0.003 -0.097,-0.011c-0.028,-0.007 -0.051,-0.017 -0.069,-0.029c-0.018,-0.012 -0.032,-0.027 -0.041,-0.043c-0.009,-0.016 -0.014,-0.033 -0.014,-0.051c0,-0.025 0.008,-0.046 0.024,-0.063c0.015,-0.017 0.037,-0.031 0.064,-0.042c-0.015,-0.006 -0.027,-0.015 -0.036,-0.026c-0.009,-0.011 -0.013,-0.027 -0.013,-0.046c0,-0.007 0.001,-0.014 0.004,-0.022c0.003,-0.008 0.007,-0.016 0.012,-0.024c0.006,-0.008 0.013,-0.015 0.021,-0.022c0.008,-0.007 0.017,-0.013 0.028,-0.019c-0.025,-0.014 -0.045,-0.032 -0.059,-0.055c-0.014,-0.023 -0.021,-0.05 -0.021,-0.081c0,-0.025 0.005,-0.047 0.014,-0.067c0.01,-0.02 0.023,-0.038 0.04,-0.052c0.017,-0.014 0.037,-0.025 0.061,-0.033c0.023,-0.007 0.049,-0.011 0.077,-0.011c0.022,0 0.043,0.002 0.062,0.007c0.019,0.005 0.036,0.012 0.052,0.021l0.137,0Z" style="fill-rule:nonzero;"/></g><g transform="matrix(50,0,0,50,448.625,246.825)"><path d="M0.41,-0.309c-0.001,-0.02 -0.003,-0.039 -0.009,-0.056c-0.006,-0.017 -0.015,-0.032 -0.026,-0.045c-0.011,-0.012 -0.025,-0.022 -0.04,-0.029c-0.017,-0.007 -0.035,-0.01 -0.055,-0.01c-0.043,0 -0.076,0.012 -0.101,0.037c-0.025,0.025 -0.041,0.059 -0.047,0.104l0.278,0Zm0.071,0.237c-0.011,0.013 -0.024,0.025 -0.039,0.035c-0.015,0.01 -0.032,0.018 -0.049,0.024c-0.018,0.006 -0.036,0.011 -0.055,0.014c-0.018,0.003 -0.037,0.005 -0.055,0.005c-0.035,0 -0.067,-0.006 -0.097,-0.018c-0.029,-0.012 -0.055,-0.029 -0.076,-0.052c-0.022,-0.023 -0.039,-0.051 -0.051,-0.084c-0.012,-0.034 -0.018,-0.073 -0.018,-0.116c0,-0.036 0.006,-0.069 0.017,-0.099c0.011,-0.031 0.026,-0.058 0.046,-0.08c0.021,-0.023 0.046,-0.04 0.075,-0.053c0.029,-0.013 0.062,-0.019 0.099,-0.019c0.03,0 0.058,0.005 0.084,0.015c0.026,0.01 0.048,0.025 0.067,0.044c0.019,0.019 0.034,0.043 0.044,0.071c0.011,0.028 0.016,0.06 0.016,0.096c0,0.014 -0.001,0.023 -0.004,0.028c-0.003,0.005 -0.009,0.007 -0.017,0.007l-0.339,0c0.001,0.032 0.006,0.06 0.014,0.084c0.008,0.023 0.018,0.043 0.032,0.059c0.014,0.016 0.031,0.027 0.05,0.035c0.02,0.008 0.041,0.012 0.065,0.012c0.023,0 0.042,-0.003 0.058,-0.008c0.016,-0.005 0.03,-0.01 0.042,-0.016c0.012,-0.006 0.021,-0.012 0.029,-0.017c0.008,-0.005 0.015,-0.008 0.02,-0.008c0.008,0 0.013,0.003 0.017,0.009l0.025,0.032Z" style="fill-rule:nonzero;"/></g><g transform="matrix(50,0,0,50,475.025,246.825)"><path d="M0.155,-0.405c0.016,-0.035 0.036,-0.062 0.059,-0.081c0.023,-0.02 0.052,-0.029 0.085,-0.029c0.011,0 0.021,0.001 0.031,0.003c0.01,0.002 0.019,0.006 0.027,0.011l-0.007,0.067c-0.002,0.008 -0.007,0.012 -0.015,0.012c-0.005,0 -0.011,-0.001 -0.02,-0.003c-0.009,-0.002 -0.02,-0.003 -0.031,-0.003c-0.016,0 -0.03,0.002 -0.043,0.007c-0.012,0.005 -0.023,0.012 -0.033,0.021c-0.01,0.009 -0.019,0.02 -0.027,0.034c-0.008,0.013 -0.015,0.029 -0.021,0.046l0,0.32l-0.089,0l0,-0.507l0.051,0c0.009,0 0.016,0.002 0.02,0.006c0.003,0.004 0.006,0.01 0.007,0.019l0.006,0.077Z" style="fill-rule:nonzero;"/></g><g transform="matrix(50,0,0,50,493.225,246.825)"><path d="M0.155,-0.433c0.011,-0.012 0.022,-0.023 0.035,-0.034c0.012,-0.01 0.025,-0.018 0.039,-0.025c0.014,-0.007 0.028,-0.013 0.044,-0.017c0.015,-0.004 0.032,-0.005 0.05,-0.005c0.028,0 0.052,0.004 0.073,0.013c0.021,0.009 0.039,0.022 0.053,0.039c0.014,0.017 0.025,0.037 0.032,0.061c0.008,0.024 0.012,0.05 0.012,0.079l-0.001,0.322l-0.089,0l0,-0.323c0,-0.038 -0.009,-0.068 -0.026,-0.089c-0.018,-0.021 -0.044,-0.031 -0.08,-0.031c-0.026,0 -0.051,0.006 -0.074,0.019c-0.023,0.012 -0.044,0.029 -0.063,0.051l0,0.373l-0.089,0l0,-0.506l0.053,-0.001c0.013,0 0.021,0.007 0.024,0.019l0.007,0.055Z" style="fill-rule:nonzero;"/></g><g transform="matrix(50,0,0,50,521.125,246.825)"><path d="M0.41,-0.309c-0.001,-0.02 -0.003,-0.039 -0.009,-0.056c-0.006,-0.017 -0.015,-0.032 -0.026,-0.045c-0.011,-0.012 -0.025,-0.022 -0.04,-0.029c-0.017,-0.007 -0.035,-0.01 -0.055,-0.01c-0.043,0 -0.076,0.012 -0.101,0.037c-0.025,0.025 -0.041,0.059 -0.047,0.104l0.278,0Zm0.071,0.237c-0.011,0.013 -0.024,0.025 -0.039,0.035c-0.015,0.01 -0.032,0.018 -0.049,0.024c-0.018,0.006 -0.036,0.011 -0.055,0.014c-0.018,0.003 -0.037,0.005 -0.055,0.005c-0.035,0 -0.067,-0.006 -0.097,-0.018c-0.029,-0.012 -0.055,-0.029 -0.076,-0.052c-0.022,-0.023 -0.039,-0.051 -0.051,-0.084c-0.012,-0.034 -0.018,-0.073 -0.018,-0.116c0,-0.036 0.006,-0.069 0.017,-0.099c0.011,-0.031 0.026,-0.058 0.046,-0.08c0.021,-0.023 0.046,-0.04 0.075,-0.053c0.029,-0.013 0.062,-0.019 0.099,-0.019c0.03,0 0.058,0.005 0.084,0.015c0.026,0.01 0.048,0.025 0.067,0.044c0.019,0.019 0.034,0.043 0.044,0.071c0.011,0.028 0.016,0.06 0.016,0.096c0,0.014 -0.001,0.023 -0.004,0.028c-0.003,0.005 -0.009,0.007 -0.017,0.007l-0.339,0c0.001,0.032 0.006,0.06 0.014,0.084c0.008,0.023 0.018,0.043 0.032,0.059c0.014,0.016 0.031,0.027 0.05,0.035c0.02,0.008 0.041,0.012 0.065,0.012c0.023,0 0.042,-0.003 0.058,-0.008c0.016,-0.005 0.03,-0.01 0.042,-0.016c0.012,-0.006 0.021,-0.012 0.029,-0.017c0.008,-0.005 0.015,-0.008 0.02,-0.008c0.008,0 0.013,0.003 0.017,0.009l0.025,0.032Z" style="fill-rule:nonzero;"/></g><g transform="matrix(50,0,0,50,560.325,246.825)"><path d="M0.343,-0.077c0.028,0 0.051,-0.003 0.072,-0.01c0.02,-0.006 0.036,-0.015 0.049,-0.026c0.013,-0.012 0.022,-0.025 0.028,-0.041c0.006,-0.016 0.009,-0.034 0.009,-0.053c0,-0.037 -0.013,-0.066 -0.039,-0.087c-0.027,-0.022 -0.066,-0.033 -0.119,-0.033l-0.155,0l0,0.25l0.155,0Zm-0.155,-0.563l0,0.245l0.128,-0.001c0.027,0.001 0.051,-0.003 0.071,-0.009c0.02,-0.006 0.037,-0.014 0.05,-0.024c0.013,-0.011 0.023,-0.024 0.029,-0.039c0.007,-0.015 0.01,-0.032 0.01,-0.05c0,-0.042 -0.013,-0.073 -0.038,-0.093c-0.025,-0.019 -0.065,-0.029 -0.118,-0.029l-0.132,0Zm0.132,-0.077c0.044,0 0.082,0.005 0.114,0.013c0.032,0.009 0.058,0.021 0.078,0.037c0.021,0.016 0.036,0.036 0.045,0.059c0.01,0.023 0.015,0.049 0.015,0.078c0,0.018 -0.003,0.035 -0.008,0.051c-0.006,0.016 -0.014,0.031 -0.025,0.045c-0.011,0.014 -0.025,0.027 -0.042,0.038c-0.017,0.011 -0.036,0.02 -0.059,0.027c0.053,0.01 0.092,0.029 0.119,0.057c0.026,0.027 0.039,0.063 0.039,0.108c0,0.03 -0.005,0.058 -0.016,0.083c-0.011,0.025 -0.028,0.046 -0.049,0.064c-0.022,0.018 -0.048,0.032 -0.08,0.042c-0.031,0.01 -0.067,0.015 -0.107,0.015l-0.253,0l0,-0.717l0.229,0Z" style="fill-rule:nonzero;"/></g><g transform="matrix(50,0,0,50,592.25,246.825)"><path d="M0.345,-0.228c-0.041,0.001 -0.076,0.005 -0.105,0.01c-0.029,0.005 -0.052,0.012 -0.07,0.02c-0.018,0.008 -0.032,0.018 -0.04,0.029c-0.008,0.012 -0.012,0.025 -0.012,0.039c0,0.013 0.002,0.024 0.006,0.034c0.005,0.01 0.011,0.018 0.018,0.024c0.008,0.006 0.017,0.01 0.027,0.013c0.01,0.003 0.021,0.005 0.032,0.005c0.016,0 0.03,-0.002 0.043,-0.005c0.013,-0.003 0.026,-0.008 0.037,-0.014c0.012,-0.006 0.023,-0.013 0.033,-0.021c0.011,-0.009 0.021,-0.018 0.031,-0.029l0,-0.105Zm-0.288,-0.207c0.028,-0.027 0.059,-0.047 0.091,-0.06c0.032,-0.014 0.068,-0.02 0.107,-0.02c0.029,0 0.054,0.004 0.076,0.013c0.022,0.01 0.04,0.023 0.055,0.039c0.015,0.017 0.027,0.037 0.034,0.061c0.008,0.024 0.012,0.05 0.012,0.078l0,0.324l-0.04,0c-0.008,0 -0.015,-0.001 -0.02,-0.004c-0.004,-0.003 -0.008,-0.009 -0.011,-0.017l-0.01,-0.048c-0.013,0.012 -0.026,0.023 -0.039,0.033c-0.012,0.009 -0.026,0.017 -0.04,0.024c-0.014,0.006 -0.028,0.011 -0.044,0.015c-0.016,0.003 -0.034,0.005 -0.053,0.005c-0.02,0 -0.038,-0.003 -0.056,-0.008c-0.017,-0.006 -0.032,-0.014 -0.045,-0.025c-0.013,-0.011 -0.023,-0.025 -0.03,-0.042c-0.008,-0.017 -0.012,-0.036 -0.012,-0.059c0,-0.02 0.006,-0.04 0.017,-0.058c0.011,-0.019 0.029,-0.035 0.053,-0.05c0.025,-0.014 0.057,-0.026 0.097,-0.035c0.04,-0.009 0.088,-0.014 0.146,-0.016l0,-0.039c0,-0.039 -0.009,-0.069 -0.026,-0.089c-0.017,-0.02 -0.041,-0.03 -0.074,-0.03c-0.022,0 -0.04,0.002 -0.055,0.008c-0.015,0.005 -0.028,0.011 -0.039,0.018c-0.011,0.007 -0.02,0.013 -0.028,0.019c-0.008,0.005 -0.015,0.008 -0.023,0.008c-0.006,0 -0.011,-0.002 -0.016,-0.005c-0.004,-0.003 -0.008,-0.007 -0.011,-0.012l-0.016,-0.028Z" style="fill-rule:nonzero;"/></g><g transform="matrix(50,0,0,50,617.1,246.825)"><path d="M0.155,-0.433c0.011,-0.012 0.022,-0.023 0.035,-0.034c0.012,-0.01 0.025,-0.018 0.039,-0.025c0.014,-0.007 0.028,-0.013 0.044,-0.017c0.015,-0.004 0.032,-0.005 0.05,-0.005c0.028,0 0.052,0.004 0.073,0.013c0.021,0.009 0.039,0.022 0.053,0.039c0.014,0.017 0.025,0.037 0.032,0.061c0.008,0.024 0.012,0.05 0.012,0.079l-0.001,0.322l-0.089,0l0,-0.323c0,-0.038 -0.009,-0.068 -0.026,-0.089c-0.018,-0.021 -0.044,-0.031 -0.08,-0.031c-0.026,0 -0.051,0.006 -0.074,0.019c-0.023,0.012 -0.044,0.029 -0.063,0.051l0,0.373l-0.089,0l0,-0.506l0.053,-0.001c0.013,0 0.021,0.007 0.024,0.019l0.007,0.055Z" style="fill-rule:nonzero;"/></g><g transform="matrix(50,0,0,50,645,246.825)"><path d="M0.345,-0.228c-0.041,0.001 -0.076,0.005 -0.105,0.01c-0.029,0.005 -0.052,0.012 -0.07,0.02c-0.018,0.008 -0.032,0.018 -0.04,0.029c-0.008,0.012 -0.012,0.025 -0.012,0.039c0,0.013 0.002,0.024 0.006,0.034c0.005,0.01 0.011,0.018 0.018,0.024c0.008,0.006 0.017,0.01 0.027,0.013c0.01,0.003 0.021,0.005 0.032,0.005c0.016,0 0.03,-0.002 0.043,-0.005c0.013,-0.003 0.026,-0.008 0.037,-0.014c0.012,-0.006 0.023,-0.013 0.033,-0.021c0.011,-0.009 0.021,-0.018 0.031,-0.029l0,-0.105Zm-0.288,-0.207c0.028,-0.027 0.059,-0.047 0.091,-0.06c0.032,-0.014 0.068,-0.02 0.107,-0.02c0.029,0 0.054,0.004 0.076,0.013c0.022,0.01 0.04,0.023 0.055,0.039c0.015,0.017 0.027,0.037 0.034,0.061c0.008,0.024 0.012,0.05 0.012,0.078l0,0.324l-0.04,0c-0.008,0 -0.015,-0.001 -0.02,-0.004c-0.004,-0.003 -0.008,-0.009 -0.011,-0.017l-0.01,-0.048c-0.013,0.012 -0.026,0.023 -0.039,0.033c-0.012,0.009 -0.026,0.017 -0.04,0.024c-0.014,0.006 -0.028,0.011 -0.044,0.015c-0.016,0.003 -0.034,0.005 -0.053,0.005c-0.02,0 -0.038,-0.003 -0.056,-0.008c-0.017,-0.006 -0.032,-0.014 -0.045,-0.025c-0.013,-0.011 -0.023,-0.025 -0.03,-0.042c-0.008,-0.017 -0.012,-0.036 -0.012,-0.059c0,-0.02 0.006,-0.04 0.017,-0.058c0.011,-0.019 0.029,-0.035 0.053,-0.05c0.025,-0.014 0.057,-0.026 0.097,-0.035c0.04,-0.009 0.088,-0.014 0.146,-0.016l0,-0.039c0,-0.039 -0.009,-0.069 -0.026,-0.089c-0.017,-0.02 -0.041,-0.03 -0.074,-0.03c-0.022,0 -0.04,0.002 -0.055,0.008c-0.015,0.005 -0.028,0.011 -0.039,0.018c-0.011,0.007 -0.02,0.013 -0.028,0.019c-0.008,0.005 -0.015,0.008 -0.023,0.008c-0.006,0 -0.011,-0.002 -0.016,-0.005c-0.004,-0.003 -0.008,-0.007 -0.011,-0.012l-0.016,-0.028Z" style="fill-rule:nonzero;"/></g><g transform="matrix(50,0,0,50,669.85,246.825)"><path d="M0.155,-0.433c0.011,-0.012 0.022,-0.023 0.035,-0.034c0.012,-0.01 0.025,-0.018 0.039,-0.025c0.014,-0.007 0.028,-0.013 0.044,-0.017c0.015,-0.004 0.032,-0.005 0.05,-0.005c0.028,0 0.052,0.004 0.073,0.013c0.021,0.009 0.039,0.022 0.053,0.039c0.014,0.017 0.025,0.037 0.032,0.061c0.008,0.024 0.012,0.05 0.012,0.079l-0.001,0.322l-0.089,0l0,-0.323c0,-0.038 -0.009,-0.068 -0.026,-0.089c-0.018,-0.021 -0.044,-0.031 -0.08,-0.031c-0.026,0 -0.051,0.006 -0.074,0.019c-0.023,0.012 -0.044,0.029 -0.063,0.051l0,0.373l-0.089,0l0,-0.506l0.053,-0.001c0.013,0 0.021,0.007 0.024,0.019l0.007,0.055Z" style="fill-rule:nonzero;"/></g><g transform="matrix(50,0,0,50,697.75,246.825)"><path d="M0.41,-0.309c-0.001,-0.02 -0.003,-0.039 -0.009,-0.056c-0.006,-0.017 -0.015,-0.032 -0.026,-0.045c-0.011,-0.012 -0.025,-0.022 -0.04,-0.029c-0.017,-0.007 -0.035,-0.01 -0.055,-0.01c-0.043,0 -0.076,0.012 -0.101,0.037c-0.025,0.025 -0.041,0.059 -0.047,0.104l0.278,0Zm0.071,0.237c-0.011,0.013 -0.024,0.025 -0.039,0.035c-0.015,0.01 -0.032,0.018 -0.049,0.024c-0.018,0.006 -0.036,0.011 -0.055,0.014c-0.018,0.003 -0.037,0.005 -0.055,0.005c-0.035,0 -0.067,-0.006 -0.097,-0.018c-0.029,-0.012 -0.055,-0.029 -0.076,-0.052c-0.022,-0.023 -0.039,-0.051 -0.051,-0.084c-0.012,-0.034 -0.018,-0.073 -0.018,-0.116c0,-0.036 0.006,-0.069 0.017,-0.099c0.011,-0.031 0.026,-0.058 0.046,-0.08c0.021,-0.023 0.046,-0.04 0.075,-0.053c0.029,-0.013 0.062,-0.019 0.099,-0.019c0.03,0 0.058,0.005 0.084,0.015c0.026,0.01 0.048,0.025 0.067,0.044c0.019,0.019 0.034,0.043 0.044,0.071c0.011,0.028 0.016,0.06 0.016,0.096c0,0.014 -0.001,0.023 -0.004,0.028c-0.003,0.005 -0.009,0.007 -0.017,0.007l-0.339,0c0.001,0.032 0.006,0.06 0.014,0.084c0.008,0.023 0.018,0.043 0.032,0.059c0.014,0.016 0.031,0.027 0.05,0.035c0.02,0.008 0.041,0.012 0.065,0.012c0.023,0 0.042,-0.003 0.058,-0.008c0.016,-0.005 0.03,-0.01 0.042,-0.016c0.012,-0.006 0.021,-0.012 0.029,-0.017c0.008,-0.005 0.015,-0.008 0.02,-0.008c0.008,0 0.013,0.003 0.017,0.009l0.025,0.032Z" style="fill-rule:nonzero;"/></g><g transform="matrix(50,0,0,50,724.15,246.825)"><path d="M0.155,-0.433c0.011,-0.012 0.022,-0.023 0.035,-0.034c0.012,-0.01 0.025,-0.018 0.039,-0.025c0.014,-0.007 0.028,-0.013 0.044,-0.017c0.015,-0.004 0.032,-0.005 0.05,-0.005c0.028,0 0.052,0.004 0.073,0.013c0.021,0.009 0.039,0.022 0.053,0.039c0.014,0.017 0.025,0.037 0.032,0.061c0.008,0.024 0.012,0.05 0.012,0.079l-0.001,0.322l-0.089,0l0,-0.323c0,-0.038 -0.009,-0.068 -0.026,-0.089c-0.018,-0.021 -0.044,-0.031 -0.08,-0.031c-0.026,0 -0.051,0.006 -0.074,0.019c-0.023,0.012 -0.044,0.029 -0.063,0.051l0,0.373l-0.089,0l0,-0.506l0.053,-0.001c0.013,0 0.021,0.007 0.024,0.019l0.007,0.055Z" style="fill-rule:nonzero;"/></g><g transform="matrix(50,0,0,50,752.05,246.825)"><path d="M0.056,-0.055c-0.001,-0.009 0.001,-0.017 0.004,-0.025c0.003,-0.007 0.008,-0.014 0.013,-0.02c0.006,-0.005 0.012,-0.01 0.02,-0.013c0.008,-0.003 0.016,-0.005 0.025,-0.005c0.008,0 0.016,0.002 0.024,0.005c0.008,0.003 0.014,0.008 0.02,0.013c0.006,0.006 0.01,0.013 0.014,0.021c0.003,0.007 0.005,0.015 0.005,0.024c-0.001,0.009 -0.002,0.017 -0.005,0.025c-0.004,0.007 -0.008,0.014 -0.014,0.019c-0.006,0.006 -0.012,0.011 -0.02,0.014c-0.008,0.003 -0.016,0.004 -0.024,0.004c-0.009,0 -0.017,-0.001 -0.025,-0.004c-0.008,-0.003 -0.014,-0.008 -0.02,-0.014c-0.005,-0.005 -0.01,-0.012 -0.013,-0.019c-0.003,-0.008 -0.004,-0.016 -0.004,-0.025Z" style="fill-rule:nonzero;"/></g></g><path d="M450,195.5l-83.269,-37l166.538,0l-83.269,37Z" style="fill:#2a2a7b;stroke:#2a2a7b;stroke-width:5px;"/></svg>