<?xml version="1.0" encoding="UTF-8" standalone="no"?><!DOCTYPE svg PUBLIC "-//W3C//DTD SVG 1.1//EN" "http://www.w3.org/Graphics/SVG/1.1/DTD/svg11.dtd"><svg width="100%" height="100%" viewBox="0 0 900 500" version="1.1" xmlns="http://www.w3.org/2000/svg" xmlns:xlink="http://www.w3.org/1999/xlink" xml:space="preserve" xmlns:serif="http://www.serif.com/" style="fill-rule:evenodd;clip-rule:evenodd;stroke-linecap:round;stroke-linejoin:round;stroke-miterlimit:1.5;"><g><text x="81.288px" y="285.825px" style="font-family:'Lato-Regular', 'Lato', sans-serif;font-size:50px;">I<tspan x="94.513px " y="285.825px ">c</tspan>h   esse   z.B.   g<tspan x="461.713px " y="285.825px ">e</tspan>rne   B<tspan x="630.938px " y="285.825px ">a</tspan>nanen  .</text><g><rect x="73.712" y="226" width="82.153" height="80.25" style="fill:none;stroke:#16167b;stroke-width:5px;"/><rect x="808.712" y="226" width="29.153" height="80.25" style="fill:none;stroke:#2a2a7b;stroke-width:5px;"/><rect x="169.288" y="226" width="121.5" height="80.25" style="fill:none;stroke:#e56d79;stroke-width:5px;"/><rect x="309.788" y="226" width="95.5" height="80.25" style="fill:none;stroke:#6eb3ce;stroke-width:5px;"/><rect x="420.788" y="226" width="149.5" height="80.25" style="fill:none;stroke:#6eb3ce;stroke-width:5px;"/><rect x="587.788" y="226" width="210.5" height="80.25" style="fill:none;stroke:#2a2a7b;stroke-width:5px;"/></g></g><g><text x="81.288px" y="443.825px" style="font-family:'Lato-Regular', 'Lato', sans-serif;font-size:50px;">I<tspan x="94.513px " y="443.825px ">c</tspan>h   esse   z.B.   g<tspan x="461.713px " y="443.825px ">e</tspan>rne   B<tspan x="630.938px " y="443.825px ">a</tspan>nanen  .</text><g><rect x="73.712" y="384" width="82.153" height="80.25" style="fill:none;stroke:#16167b;stroke-width:5px;"/><rect x="808.712" y="384" width="29.153" height="80.25" style="fill:none;stroke:#2a2a7b;stroke-width:5px;"/><rect x="169.288" y="384" width="121.5" height="80.25" style="fill:none;stroke:#2a2a7b;stroke-width:5px;"/><rect x="309.788" y="384" width="95.5" height="80.25" style="fill:none;stroke:#e56d79;stroke-width:5px;"/><rect x="420.788" y="384" width="149.5" height="80.25" style="fill:none;stroke:#6eb3ce;stroke-width:5px;"/><rect x="587.788" y="384" width="210.5" height="80.25" style="fill:none;stroke:#6eb3ce;stroke-width:5px;"/></g></g><g><text x="81.288px" y="122.825px" style="font-family:'Lato-Regular', 'Lato', sans-serif;font-size:50px;">I<tspan x="94.513px " y="122.825px ">c</tspan>h   esse   z.B.   g<tspan x="461.713px " y="122.825px ">e</tspan>rne   B<tspan x="630.938px " y="122.825px ">a</tspan>nanen  .</text><g><rect x="73.712" y="63" width="82.153" height="80.25" style="fill:none;stroke:#e56d79;stroke-width:5px;"/><rect x="808.712" y="63" width="29.153" height="80.25" style="fill:none;stroke:#2a2a7b;stroke-width:5px;"/><rect x="169.288" y="63" width="121.5" height="80.25" style="fill:none;stroke:#6eb3ce;stroke-width:5px;"/><rect x="309.788" y="63" width="95.5" height="80.25" style="fill:none;stroke:#6eb3ce;stroke-width:5px;"/><rect x="420.788" y="63" width="149.5" height="80.25" style="fill:none;stroke:#2a2a7b;stroke-width:5px;"/><rect x="587.788" y="63" width="210.5" height="80.25" style="fill:none;stroke:#2a2a7b;stroke-width:5px;"/></g></g><path d="M122.225,54.13c10.012,-3.271 20.451,-6.306 32.225,-8.445c42.253,-7.675 81.786,-2.806 118.69,6.626" style="fill:none;stroke:#e56d79;stroke-width:10px;"/><path d="M85.225,54.13c19.167,-9.686 39.151,-18.673 61.692,-25.007c80.89,-22.728 156.573,-8.31 227.223,19.62" style="fill:none;stroke:#e56d79;stroke-width:10px;"/><path d="M197.225,216.13c21.423,-8.35 43.759,-16.097 68.952,-21.556c90.41,-19.593 174.999,-7.164 253.963,16.913" style="fill:none;stroke:#e56d79;stroke-width:10px;"/><path d="M327.225,376.13c24.275,-8.35 49.586,-16.097 78.134,-21.556c102.449,-19.593 198.302,-7.164 287.781,16.913" style="fill:none;stroke:#e56d79;stroke-width:10px;"/><path d="M268.225,217.13c6.96,-3.538 14.217,-6.821 22.402,-9.135c29.374,-8.302 56.857,-3.035 82.513,7.167" style="fill:none;stroke:#e56d79;stroke-width:10px;"/><path d="M382.225,375.13c10.012,-3.271 20.451,-6.306 32.225,-8.445c42.253,-7.675 81.786,-2.806 118.69,6.626" style="fill:none;stroke:#e56d79;stroke-width:10px;"/></svg>